<?xml version="1.0" encoding="UTF-8" standalone="no"?>
<svg
   width="100%"
   height="100%"
   viewBox="0 0 128 128"
   version="1.1"
   xml:space="preserve"
   style="fill-rule:evenodd;clip-rule:evenodd;stroke-linejoin:round;stroke-miterlimit:2;"
   id="svg12"
   sodipodi:docname="batata.svg"
   inkscape:version="1.3.2 (091e20ef0f, 2023-11-25, custom)"
   inkscape:export-filename="../../../../../tmp/batata.png"
   inkscape:export-xdpi="96"
   inkscape:export-ydpi="96"
   xmlns:inkscape="http://www.inkscape.org/namespaces/inkscape"
   xmlns:sodipodi="http://sodipodi.sourceforge.net/DTD/sodipodi-0.dtd"
   xmlns="http://www.w3.org/2000/svg"
   xmlns:svg="http://www.w3.org/2000/svg"
   xmlns:rdf="http://www.w3.org/1999/02/22-rdf-syntax-ns#"
   xmlns:cc="http://creativecommons.org/ns#"
   xmlns:dc="http://purl.org/dc/elements/1.1/"><title
   id="title71">Batata Terminal</title><sodipodi:namedview
   id="namedview12"
   pagecolor="#ffffff"
   bordercolor="#000000"
   borderopacity="0.25"
   inkscape:showpageshadow="2"
   inkscape:pageopacity="0.0"
   inkscape:pagecheckerboard="0"
   inkscape:deskcolor="#d1d1d1"
   inkscape:zoom="8"
   inkscape:cx="90.8125"
   inkscape:cy="50.125"
   inkscape:window-width="1920"
   inkscape:window-height="1011"
   inkscape:window-x="0"
   inkscape:window-y="0"
   inkscape:window-maximized="1"
   inkscape:current-layer="svg12" />
    
    
    
    <g
   id="g12"><path
     d="M20,22L108,22C112.418,22 116,25.582 116,30L116,108C116,112.418 112.418,116 108,116L20,116C15.582,116 12,112.418 12,108L12,30C12,25.582 15.582,22 20,22Z"
     style="fill:url(#_Linear1);fill-rule:nonzero;"
     id="path1" /><path
     d="M20,12L108,12C112.418,12 116,15.582 116,20L116,100C116,104.418 112.418,108 108,108L20,108C15.582,108 12,104.418 12,100L12,20C12,15.582 15.582,12 20,12Z"
     style="fill:rgb(192,191,188);fill-rule:nonzero;"
     id="path2" /><path
     d="M20,14L108,14C111.313,14 114,16.688 114,20L114,100C114,103.313 111.313,106 108,106L20,106C16.688,106 14,103.313 14,100L14,20C14,16.688 16.688,14 20,14Z"
     style="fill:rgb(36,31,49);fill-rule:nonzero;"
     id="path3" /><g
     transform="matrix(0.96,0,0,0.96,2.56,2.4)"
     id="g4">
        <path
   d="M19.208,14L108.792,14C112.104,14 114,16.063 114,19.375L114,100.625C114,103.938 112.104,106 108.792,106L19.208,106C15.896,106 14,103.938 14,100.625L14,19.375C14,16.063 15.896,14 19.208,14Z"
   style="fill:url(#_Radial2);fill-rule:nonzero;"
   id="path4" />
    </g></g>
    
    <defs
   id="defs12"><inkscape:path-effect
   effect="fillet_chamfer"
   id="path-effect14"
   is_visible="true"
   lpeversion="1"
   nodesatellites_param="F,0,0,1,0,0,0,1 @ F,0,0,1,0,0,0,1 @ F,0,0,1,0,0,0,1 @ F,0,0,1,0,5.6358609,0,1"
   radius="0"
   unit="px"
   method="auto"
   mode="F"
   chamfer_steps="1"
   flexible="false"
   use_knot_distance="true"
   apply_no_radius="true"
   apply_with_radius="true"
   only_selected="false"
   hide_knots="false" /><inkscape:path-effect
   effect="fillet_chamfer"
   id="path-effect13"
   is_visible="true"
   lpeversion="1"
   nodesatellites_param="F,0,0,1,0,5.529298,0,1 @ F,0,0,1,0,0,0,1 @ F,0,0,1,0,0,0,1 @ F,0,0,1,0,0,0,1"
   radius="0"
   unit="px"
   method="auto"
   mode="F"
   chamfer_steps="1"
   flexible="false"
   use_knot_distance="true"
   apply_no_radius="true"
   apply_with_radius="true"
   only_selected="false"
   hide_knots="false" /><inkscape:path-effect
   effect="fillet_chamfer"
   id="path-effect12"
   is_visible="true"
   lpeversion="1"
   nodesatellites_param="F,0,0,1,0,0,0,1 @ F,0,0,1,0,0,0,1 @ F,0,0,1,0,0,0,1 @ F,0,0,1,0,0,0,1"
   radius="0"
   unit="px"
   method="auto"
   mode="F"
   chamfer_steps="1"
   flexible="false"
   use_knot_distance="true"
   apply_no_radius="true"
   apply_with_radius="true"
   only_selected="false"
   hide_knots="false" />
        <linearGradient
   id="_Linear1"
   x1="0"
   y1="0"
   x2="1"
   y2="0"
   gradientUnits="userSpaceOnUse"
   gradientTransform="matrix(104,0,0,104,12,64)"><stop
     offset="0"
     style="stop-color:rgb(94,92,100);stop-opacity:1"
     id="stop5" /><stop
     offset="0.05"
     style="stop-color:rgb(192,191,188);stop-opacity:1"
     id="stop6" /><stop
     offset="0.1"
     style="stop-color:rgb(154,153,150);stop-opacity:1"
     id="stop7" /><stop
     offset="0.9"
     style="stop-color:rgb(154,153,150);stop-opacity:1"
     id="stop8" /><stop
     offset="0.95"
     style="stop-color:rgb(192,191,188);stop-opacity:1"
     id="stop9" /><stop
     offset="1"
     style="stop-color:rgb(94,92,100);stop-opacity:1"
     id="stop10" /></linearGradient>
        <radialGradient
   id="_Radial2"
   cx="0"
   cy="0"
   r="1"
   gradientUnits="userSpaceOnUse"
   gradientTransform="matrix(5.63338e-15,-92,92,5.63338e-15,64,106)"><stop
     offset="0"
     style="stop-color:rgb(61,56,70);stop-opacity:1"
     id="stop11" /><stop
     offset="1"
     style="stop-color:rgb(36,31,49);stop-opacity:1"
     id="stop12" /></radialGradient>
    </defs>
<g
   id="g13"
   transform="matrix(0.11997108,0,0,0.11997108,11.747541,62.693003)"><path
     id="path5"
     style="fill:#2d0b04"
     d="m 298.8067,-323.57762 c -1.00474,-0.18725 -2.00774,-0.17471 -2.96296,0.0163 -1.91033,0.38171 -3.6572,1.5068 -4.94911,3.32112 -1.05425,1.48045 -3.3466,7.60595 -5.09563,13.61005 -5.41523,18.58963 -6.69065,21.34757 -10.84245,23.42687 -2.01883,1.01104 -8.85788,3.45477 -15.20549,5.43751 -12.34718,3.8566 -15.95437,6.3351 -15.95437,10.94013 0,5.05357 3.54473,7.38946 17.56609,11.57506 7.19187,2.1468 14.04832,4.42629 15.23804,5.06307 2.96725,1.58791 4.30959,4.4918 9.1819,20.02435 3.10335,9.89308 4.95105,14.16551 7.03295,16.24741 3.57813,3.57813 7.17316,3.65519 9.88194,0.21164 1.13071,-1.43747 4.08304,-9.01944 6.56082,-16.84977 2.47789,-7.83021 5.44261,-15.40747 6.57711,-16.84976 1.53491,-1.95132 6.36298,-5.13264 13.95193,-7.43994 10.58084,-2.55382 24.18816,-4.835 23.00359,-12.16114 -1.03185,-6.38158 -6.35542,-7.57193 -18.21728,-11.03781 -13.02,-3.80438 -16.06089,-5.18224 -18.201,-8.23767 -1.55805,-2.22431 -4.31938,-10.16636 -8.97026,-25.82002 -2.12515,-7.15251 -3.02063,-8.79765 -5.60031,-10.3215 -0.98429,-0.58143 -1.99078,-0.96862 -2.99551,-1.15588 z m 163.19037,45.64903 c -2.68337,-0.0263 -5.37638,0.0238 -8.07487,0.14652 -47.60304,2.16412 -94.1574,29.02134 -123.79285,71.4202 -40.81228,58.38909 -15.73329,75.56453 -68.73401,156.271388 -30.77566,46.8634525 -41.76523,77.696087 -43.28843,121.51366 -1.13897,32.764872 4.49089,61.217482 17.59864,88.986292 8.45413,17.90994 18.75268,32.39923 34.39957,48.38405 15.08153,15.40746 31.95852,27.51289 51.62377,37.02064 34.88166,13.46405 71.54853,21.17136 107.13642,15.21364 0,0 51.44292,-6.07574 73.71364,-18.07891 23.69941,-12.77318 43.75472,-34.11448 59.19802,-54.94488 24.6511,-33.25003 37.96264,-67.57458 45.40483,-117.085511 6.73666,-44.81793 7.97312,-61.5118342 8.02602,-108.505968 0.0505,-44.873344 -0.66038,-56.042869 -5.99103,-93.495841 -16.81211,-118.12354 -98.02747,-146.36293 -147.21972,-146.84528 z m -212.68147,57.02867 c -1.54838,0.0214 -2.61091,0.73871 -4.49327,2.62108 -4.05075,4.05075 -4.08819,8.30085 -0.11396,12.27509 3.62524,3.62524 6.97336,3.71822 11.00526,0.3256 5.64862,-4.75298 2.92138,-13.57557 -4.63979,-15.02641 -0.67268,-0.12907 -1.24211,-0.20249 -1.75824,-0.19536 z m 1.8722,71.92489 c -1.62638,0.16422 -3.27859,0.79671 -4.77003,1.96988 -4.60971,3.62589 -2.95385,12.63304 2.73503,14.92872 2.48508,1.00285 11.64018,0.10482 11.64018,-8.0423 0,-5.66525 -4.72615,-9.34897 -9.60518,-8.8563 z m -46.4793,3.89091 c -5.48848,0 -7.85072,2.89602 -11.41226,14.00077 -2.2205,6.92339 -3.76249,8.67675 -10.0773,11.47738 -5.03206,3.16995 -9.6613,4.20861 -9.37726,10.35405 0.23714,3.42527 4.67354,6.84107 11.26574,9.458664 7.76958,1.17816 7.61998,6.873284 9.63774,13.93565 1.48014,4.550933 3.15908,7.535339 5.19331,9.247021 1.65252,1.390478 3.89785,2.523394 4.99795,2.523394 3.56128,0 7.55968,-5.238758 9.9145,-12.991412 2.27699,-7.496779 2.80128,-10.204789 5.38867,-11.477375 2.16125,-1.063025 13.18804,-6.468982 13.38213,-10.761062 0.46591,-10.30305 -4.76753,-6.93336 -9.65402,-11.23317 -3.26232,-2.87065 -6.02933,-3.3464 -9.27958,-12.63325 -3.53237,-10.09255 -5.03707,-11.90066 -9.97962,-11.90066 z m 454.68314,115.945913 c -6.38594,0.762514 -10.70706,9.105616 -4.55839,15.254327 2.54066,2.540642 3.56021,2.937926 6.20267,2.409435 5.03348,-1.006685 7.74926,-4.249987 7.74926,-9.21446 0,-3.403596 -0.52876,-4.658016 -2.63735,-6.316627 -2.27444,-1.789056 -4.62751,-2.38685 -6.75619,-2.132675 z m 1.221,74.057601 c -5.5702,0 -8.82374,2.946324 -8.82374,7.993463 0,3.619274 2.44808,7.002375 6.00731,8.302782 3.64461,1.331655 14.12902,-3.733354 9.00282,-13.056532 -1.72933,-2.836276 -2.5208,-3.239713 -6.18639,-3.239713 z m 6.60967,50.695812 c -4.82611,-0.136801 -7.34815,2.965111 -10.45174,12.861174 -2.63399,8.39866 -4.29893,10.29945 -11.78669,13.47981 -12.5556,5.3328 -6.21153,15.51342 -4.54211,16.68696 1.56601,1.10097 4.58148,2.62817 6.70734,3.38624 5.14409,1.83422 7.99724,5.43545 10.69594,13.54493 1.23062,3.69791 3.27178,7.76506 4.54211,9.03538 2.95141,2.95142 7.64621,3.03308 10.30522,0.17908 1.09189,-1.172 3.22963,-5.56131 4.73747,-9.7517 3.65102,-10.1469 4.80883,-11.79672 8.92142,-12.56813 3.77815,-0.70881 10.28261,-5.91576 10.43545,-8.15627 0.2926,-1.03255 2.53609,-10.2704 -9.80053,-13.52865 -4.83989,-1.27826 -6.30106,-3.45629 -10.09358,-14.99385 -2.57464,-7.832247 -4.66393,-10.03306 -9.6703,-10.174974 z M 626.09912,165.9935 c -1.15697,0.11536 -2.37339,0.44547 -3.64672,1.02563 -5.01503,2.28506 -6.26271,10.3918 -2.21407,14.44033 6.99797,6.99797 18.65307,-1.62758 14.09845,-10.43546 -1.89124,-3.65715 -4.76685,-5.37689 -8.23766,-5.0305 z m -34.49725,94.92847 c -3.60192,0 -7.81438,3.9782 -7.81438,7.39111 0,2.6171 2.86767,6.5882 5.16075,7.52134 2.23512,0.90957 10.84245,1.02482 10.84245,-7.40738 0,-3.45083 -4.42886,-7.50507 -8.18882,-7.50507 z m -329.79953,3.98859 c -5.30346,0 -7.53497,4.40216 -4.46071,8.79118 2.69719,3.85093 7.88212,2.29618 9.71913,-2.91411 0.91653,-2.59941 -2.01161,-5.87707 -5.25842,-5.87707 z"
     sodipodi:nodetypes="scssscsscssscscscssssssssssscccassscssssssssccsssssscsssscsssssssssssssssscsssssssssscsssssssssssssss" /><path
     style="fill:#ebbc6a"
     d="M 258.06348,169.79921 240.9097,131.19418 c -3.98148,-13.61975 -6.86535,-21.97087 -6.6153,-33.277737 0.78138,-35.33278 3.16512,-54.782177 25.24907,-102.9739154 11.39567,-24.8676986 32.93188,-49.6189496 43.21502,-74.0718246 10.28314,-24.452873 10.81463,-46.580133 21.38208,-67.785573 16.53248,-33.17531 34.07364,-69.43161 64.52696,-90.56261 24.98266,-17.335 57.73185,-22.55612 88.12231,-23.58341 8.60178,-0.29077 19.04853,3.13687 25.33616,4.97553 6.40125,1.87189 8.98215,3.28242 12.98922,5.24406 15.78791,7.72887 39.50907,25.76322 31.08421,23.75769 -9.35998,-2.22814 -6.04587,15.98222 -11.55632,30.23957 3.50029,11.76584 2.14673,50.61069 2.14673,69.73203 0,7.16564 0.64602,13.63874 0.67723,13.82667 3.63791,21.900366 -1.43506,27.473119 -2.77885,48.290736 -1.42694,22.105558 -16.58462,65.48964931 -30.78951,95.411037 -15.8855,33.461436 -30.76838,55.558101 -52.25721,77.586457 -12.31026,12.61933 -20.44557,19.45663 -33.6368,28.26999 -20.77512,13.88032 -39.82431,21.95359 -59.21486,25.09597 z m 106.19208,-32.30399 c 7.99787,-3.34172 8.77898,-15.02027 1.30922,-19.57458 -6.38381,-3.89221 -13.42229,-1.48576 -16.38354,5.60152 -1.90252,4.55336 -0.76794,8.85648 3.26991,12.40175 3.7716,3.31152 6.70498,3.70199 11.80441,1.57131 z m 90.04452,-75.018602 c 13.02829,-5.443569 6.55644,-24.971665 -6.99755,-21.114321 -9.9223,2.823798 -11.40849,17.084558 -2.19796,21.090488 4.07064,1.770441 5.00947,1.772874 9.19551,0.02383 z M 302.03219,-19.833557 c 4.60031,-4.728625 7.70733,-11.529285 7.7357,-16.931906 0.0183,-3.487439 -0.46035,-4.525343 -2.8824,-6.25 -3.90003,-2.777062 -7.30517,-2.604109 -11.06807,0.562167 -6.86646,5.777745 -10.18476,18.147808 -6.41255,23.904922 2.61205,3.986501 8.03573,3.434491 12.62732,-1.285183 z m 247.16109,83.593744 c -0.42191,-0.682677 1.16839,-2.935364 3.88278,-5.5 2.8875,-2.728193 5.82795,-6.761948 8.04807,-10.185501 1.54855,-2.387966 3.04768,-4.109627 3.33139,-3.825913 0.68197,0.681967 -4.18255,10.325092 -7.2294,14.331111 -4.76797,6.268977 -6.62132,7.464185 -8.03284,5.180303 z"
     id="path11"
     sodipodi:nodetypes="ccazzaaassscssssssccssssssssssssssssssssss" /><path
     style="fill:#b66230"
     d="m 360.638,119.43279 c -0.47689,-0.05 -0.99453,-0.0368 -1.53031,0.0326 -0.61233,0.0792 -1.25092,0.23363 -1.92104,0.4884 -1.89003,0.71859 -2.39315,1.65059 -2.39315,4.39559 0,2.18279 0.61286,3.80214 1.64427,4.37931 2.32463,1.30093 5.22637,0.31435 7.00039,-2.39315 2.25652,-3.4439 0.53812,-6.55266 -2.80016,-6.90271 z"
     id="path70" /><path
     style="fill:#b66230"
     d="m 420.84132,98.073481 c -1.38125,0.19386 -3.57483,1.183345 -6.85387,2.995509 -12.08944,6.68131 -15.74225,9.96382 -13.52865,12.17742 0.36667,0.36666 1.05432,0.66748 1.53032,0.66748 4.30976,0 20.80579,-11.16334 20.80579,-14.082173 0,-1.351955 -0.57236,-1.952099 -1.95359,-1.758236 z"
     id="path69" /><path
     style="fill:#b66230"
     d="m 418.15512,89.493939 c -1.88657,-0.723942 -17.08172,7.994352 -18.78708,10.777341 -0.85279,1.39164 -0.6776,2.06218 0.79772,3.15831 1.6665,1.23817 2.50329,0.98646 7.50506,-2.18152 11.88364,-7.52671 14.33474,-10.276587 10.4843,-11.754131 z"
     id="path68" /><path
     style="fill:#b66230"
     d="m 329.95027,71.244098 c -1.46446,-0.22175 -3.88049,1.208935 -7.13062,4.249071 -5.22918,4.891267 -5.84142,6.205742 -3.8258,8.221382 1.59832,1.598323 1.57133,1.597957 5.69799,-1.530316 5.06852,-3.842253 7.11449,-6.454942 6.83759,-8.758622 -0.15931,-1.325415 -0.70048,-2.048465 -1.57916,-2.181515 z"
     id="path67" /><path
     style="fill:#b66230"
     d="m 373.4015,70.16962 c -2.13616,-0.19277 -4.34215,2.411623 -3.256,5.242149 0.80695,2.102877 4.37264,1.874914 5.56775,-0.358159 0.70543,-1.318105 0.60652,-2.388244 -0.3256,-3.662992 -0.57207,-0.782352 -1.2741,-1.156741 -1.98615,-1.220998 z"
     id="path66" /><path
     style="fill:#b66230"
     d="m 450.86157,44.691475 c -0.83229,0.06647 -1.77582,0.32077 -2.83271,0.765158 -3.67129,1.543656 -4.30604,4.622138 -1.57916,7.635304 1.99376,2.203065 1.74123,2.179195 5.38867,0.293039 2.25185,-1.164475 2.94667,-2.217416 2.94667,-4.46071 0,-2.958191 -1.42658,-4.432196 -3.92347,-4.232791 z"
     id="path65" /><path
     style="fill:#b66230"
     d="m 456.72236,6.5963564 c -1.10701,-0.021164 -2.26481,1.0522223 -4.85143,4.0699916 -4.12964,4.817986 -5.09395,7.719906 -2.83271,8.530701 1.83281,0.657193 4.08379,-0.74364 7.61902,-4.770029 3.6163,-4.118725 3.91707,-6.0208829 1.20472,-7.4725044 -0.40826,-0.2184898 -0.7706,-0.3511045 -1.1396,-0.3581592 z"
     id="path64" /><path
     style="fill:#b66230"
     d="m 372.08282,-3.5786218 c -0.51834,-0.1434593 -1.06988,-0.1428031 -1.61172,0.06512 -1.6718,0.6415258 -2.27614,3.5032437 -1.00935,4.7700298 1.26676,1.2667864 4.11222,0.6461511 4.75375,-1.02563778 0.62374,-1.62551372 -0.57766,-3.37913432 -2.13268,-3.80951202 z"
     id="path63" /><path
     style="fill:#b66230"
     d="m 453.46637,-7.5834932 c -0.523,-0.00207 -1.02225,0.1117579 -1.43264,0.3744392 -1.04115,0.6664217 -11.24946,13.7845571 -11.24946,14.456609 0,0.2180078 -1.57519,2.0614632 -3.50019,4.102551 -3.30119,3.500269 -4.33881,6.389684 -2.83271,7.895783 1.78762,1.787649 4.62133,0.216228 8.2051,-4.57467 2.15995,-2.887491 6.21662,-8.1791455 9.0191,-11.7541347 2.80248,-3.57498941 5.10691,-7.2416325 5.11191,-8.1399826 0.007,-1.3019081 -1.75215,-2.3543709 -3.32111,-2.3605949 z"
     id="path62" /><path
     style="fill:#b66230"
     d="m 402.46123,-43.480816 c -0.69708,0.04729 -1.41078,0.240887 -2.13267,0.569798 -3.37354,1.537085 -4.33304,5.287907 -2.00244,7.863224 2.2702,2.508529 4.52584,2.481831 7.27715,-0.0814 2.33724,-2.177458 2.53299,-2.876859 1.56287,-5.404949 -0.77145,-2.010425 -2.6136,-3.088556 -4.70491,-2.946673 z"
     id="path61" /><path
     style="fill:#b66230"
     d="m 347.84195,-65.979728 c -1.58499,-0.207456 -3.11608,2.036644 -5.61659,7.651583 -1.8982,4.262488 -3.89186,8.518348 -4.42815,9.45866 -0.72658,1.273947 -0.53971,1.941619 0.7326,2.653634 2.56872,1.437526 4.94999,-0.310367 7.65159,-5.649147 3.38166,-6.682864 4.66127,-11.765218 3.30483,-13.121652 -0.57761,-0.577611 -1.11595,-0.923926 -1.64428,-0.993078 z"
     id="path60" /><path
     style="fill:#b66230"
     d="m 458.10616,-68.893842 c -1.6508,-0.235046 -3.52704,1.328077 -7.74927,6.446866 -5.21969,6.328094 -6.49002,9.10619 -4.90027,10.695937 1.46023,1.460224 3.05387,0.387815 9.1005,-6.088707 6.61311,-7.083252 7.69809,-10.463338 3.54904,-11.054096 z"
     id="path59" /><path
     style="fill:#b66230"
     d="m 536.49419,-91.099714 c -0.46293,-0.122457 -1.44398,0.37585 -2.88156,1.676836 -1.00581,0.910241 -1.80819,2.592139 -1.79079,3.744392 0.0293,1.9408 0.2204,1.882914 2.50711,-0.716318 2.29431,-2.607874 2.93679,-4.500819 2.16524,-4.70491 z"
     id="path58" /><path
     style="fill:#b66230"
     d="m 470.78825,-104.48185 c -0.92382,0.26212 -2.1991,1.52344 -4.94911,4.34675 -2.77516,2.849153 -5.04679,6.051013 -5.04679,7.11435 0,3.582986 4.34376,2.288534 9.3447,-2.783874 2.55816,-2.594725 4.65607,-4.994806 4.65607,-5.339826 0,-0.34503 -0.87876,-1.42044 -1.9536,-2.39316 -0.47338,-0.4284 -0.84165,-0.74278 -1.20471,-0.8954 -0.2723,-0.11445 -0.53862,-0.13621 -0.84656,-0.0488 z"
     id="path57" /><path
     style="fill:#b66230"
     d="m 347.58147,-122.69913 c -1.30871,0.33954 -2.81204,1.77518 -2.27919,2.63736 0.6081,0.98392 4.49327,0.0554 4.49327,-1.07448 0,-0.45339 -0.46783,-1.12667 -1.04192,-1.48148 -0.30847,-0.19064 -0.73592,-0.19457 -1.17216,-0.0814 z"
     id="path55" /><path
     style="fill:#b66230"
     d="m 331.12243,-145.03524 c -1.33777,0.11287 -2.67536,0.98834 -3.4188,2.10012 -4.97131,6.53574 -2.93887,9.35331 1.3838,9.40982 3.72759,0.0487 5.93264,-8.16013 5.11191,-9.94706 -0.48013,-1.04537 -1.73915,-1.67575 -3.07691,-1.56288 z"
     id="path54"
     sodipodi:nodetypes="sasas" /><path
     style="fill:#b66230"
     d="m 502.04578,-152.36122 c -2.15567,0.46955 -1.43049,3.96418 2.26292,11.29829 2.94979,5.85757 3.90834,6.98411 6.02358,6.98411 3.88781,0 3.8976,-2.19065 0.0326,-9.86566 -3.49509,-6.94035 -5.03245,-9.13264 -8.31906,-8.41674 z"
     id="path53" /><path
     style="fill:#b66230"
     d="m 484.00758,-159.05229 c -3.72087,-0.0594 -3.61702,2.50752 0.34188,8.92142 3.73527,6.05163 6.827,7.79396 8.07486,4.54211 1.48969,-3.88205 -4.4591,-13.40033 -8.41674,-13.46353 z"
     id="path52" /><path
     style="fill:#b66230"
     d="m 523.4865,-207.77822 c -0.42311,-0.0213 -2.04947,0.45753 -6.20267,2.05127 -1.73107,0.66428 -1.95015,3.91521 -0.45584,6.70735 1.34004,2.50387 3.44276,2.45057 6.03987,-0.14652 1.3259,-1.32592 1.82831,-2.67676 1.38379,-3.74439 -0.38304,-0.91997 -0.72267,-2.17185 -0.74887,-2.78388 -0.0262,-0.61207 -0.86387,-0.89861 -1.8722,-0.63492 -0.077,0.0201 2.56108,-1.4135 1.85592,-1.44891 z"
     id="path51" /><path
     style="fill:#b66230"
     d="m 474.50008,-220.83476 c -1.39541,0.14969 -2.70247,1.57117 -2.70247,3.35368 0,1.88585 0.52063,2.39315 2.49083,2.39315 1.98388,0 2.50712,-0.50497 2.50712,-2.44199 0,-1.34254 -0.41132,-2.68628 -0.91168,-2.99552 -0.43561,-0.26922 -0.91866,-0.35921 -1.3838,-0.30932 z"
     id="path50" /><path
     style="fill:#b66230"
     d="m 521.5909,-240.24556 c -4.92868,-0.75958 -7.22842,2.86977 -7.79098,7.98227 -0.85379,7.75912 6.22433,6.33402 9.01656,11.66052 4.92513,9.39529 8.63344,17.91514 5.8796,27.91607 -0.56838,0.72262 7.31053,46.93061 7.96091,70.60621 0.52257,19.02283 0.10464,38.268172 -3.27228,56.99616 -5.91188,32.786542 -15.23851,65.49342879 -29.48301,95.498275 -15.88547,33.461337 -30.76992,55.562022 -52.25869,77.590315 -12.31023,12.6193 -20.44321,19.44869 -33.63441,28.26202 -20.77506,13.88026 -39.9774,21.08898 -59.36789,24.23133 -9.66276,1.56592 -29.53065,2.98713 -44.20525,1.55613 -40.29643,-3.92953 -39.85266,-31.97508 -68.62003,-26.12936 -8.40876,1.70872 13.00531,36.27201 17.01256,41.98603 7.37321,10.51358 29.50987,32.19604 40.45572,39.60915 27.76093,18.80125 57.84754,29.49113 88.00949,31.30638 47.32937,2.84841 92.94985,-11.08259 126.80465,-38.74632 19.03495,-15.55401 15.74871,-12.94632 22.40133,-20.60677 10.23174,-11.7818 18.23724,-22.93206 26.55252,-38.55462 23.73155,-44.5863 31.11844,-110.515794 32.72273,-163.499693 1.72273,-56.895574 -1.82737,-104.008707 -10.61453,-141.000777 -3.08844,-11.54998 -8.45625,-23.97006 -12.9263,-34.41585 -1.66943,-3.90117 -5.63874,-12.55602 -9.84938,-18.59172 -5.58345,-8.00356 -21.97797,-26.58144 -19.19408,-21.75003 0.45045,0.78174 0.11651,1.25356 -0.89539,1.25356 -8.23632,-5.1647 -15.22503,-11.69845 -24.70385,-13.15928 z"
     id="path7"
     sodipodi:nodetypes="ssscaassssasssssasscssscs" /><path
     style="fill:#4e0604"
     d="m 415.98986,236.71644 c -0.66,-0.66 -1.2,-1.76143 -1.2,-2.44763 0,-1.80427 16.4067,-10.51727 18.37902,-9.76042 4.29781,1.64923 -0.67919,7.89319 -9.20442,11.54753 -5.08383,2.17919 -6.35098,2.28414 -7.9746,0.66052 z m -60.7,-8.69762 c -11.49641,-3.55648 -20.35822,-7.56931 -21.12425,-9.56555 -0.32973,-0.85926 -0.0757,-2.19343 0.56448,-2.96481 1.29513,-1.56054 4.44299,-0.97657 9.87358,1.8317 1.75834,0.90928 8.19687,2.95273 14.30784,4.54101 6.11097,1.58828 11.55325,3.33017 12.09394,3.87087 0.54069,0.54069 0.68305,1.92838 0.31636,3.08374 -0.91176,2.87268 -4.79351,2.67971 -16.03195,-0.79696 z m 107.7,-14.30238 c -2.87277,-2.87276 -1.25608,-4.71644 8.24334,-9.40078 5.23593,-2.58193 10.1369,-4.39053 11,-4.05933 2.28377,0.87636 1.95646,6.26031 -0.53187,8.74864 -4.77623,4.77623 -15.8567,7.56625 -18.71147,4.71147 z m -79.54502,-2.62874 c -2.55748,-2.82599 -1.98076,-5.67804 1.82364,-9.01834 4.41876,-3.87973 9.61876,-4.97435 13.02579,-2.74198 3.57487,2.34235 3.24685,6.03779 -0.90441,10.18906 -2.8468,2.8468 -4.12324,3.4 -7.84502,3.4 -3.03626,0 -4.96952,-0.57958 -6.1,-1.82874 z M 290.067,194.49619 c -1.58197,-1.33114 -3.70235,-3.95411 -4.71194,-5.82882 -1.77266,-3.29162 -1.77356,-3.5033 -0.0263,-6.16992 1.50008,-2.28942 2.30933,-2.66136 4.73492,-2.17625 1.60909,0.32182 4.68075,1.97522 6.82591,3.67421 4.82116,3.81844 5.27343,7.69575 1.26543,10.84845 -3.3811,2.65957 -4.57509,2.60825 -8.088,-0.34767 z m 69.72286,-1.28598 c -3.38583,-1.2377 -6,-4.68887 -6,-7.92103 0,-7.02285 3.53895,-10.37274 10.95816,-10.37274 7.16752,0 11.71236,9.14829 7.2696,14.63296 -3.093,3.81837 -7.87795,5.25092 -12.22776,3.66081 z m 5.00099,-14.58326 c -3.713,-0.97096 -6.80243,3.08806 -3.77914,6.11135 3.2628,3.974 9.07739,-4.7258 3.77914,-6.11135 z m 134.69449,-0.71051 c -7.35763,0 -10.30199,-5.67831 -4.15601,-8.01501 1.4249,-0.54174 4.07912,-0.98499 5.89827,-0.98499 2.61002,0 4.13371,-0.89626 7.22517,-4.25 5.70046,-6.18407 12.05339,-10.95117 14.07621,-10.56246 1.39544,0.26815 1.78776,1.43479 1.8904,5.6216 0.0712,2.90578 -0.80704,4.71675 0.77513,5.92885 1.03333,0.79164 2.0968,0.12145 3.87048,-0.51919 5.74922,-2.07659 9.96991,0.58631 7.68784,4.85038 -0.56641,1.05836 -8.32604,4.68661 -12.89738,5.88256 -7.88658,2.06329 -24.37011,2.04826 -24.37011,2.04826 z m -90.95243,-7.59027 c -2.16568,-2.16568 -0.50211,-4.5415 4.83169,-6.90036 5.99491,-2.65124 20.88032,-11.30004 26.16315,-15.20147 2.6096,-1.92721 3.62834,-2.18226 5.25,-1.31437 4.78206,2.55928 0.56865,6.50081 -17.56902,16.43535 -11.68962,6.40274 -17.19577,8.46089 -18.67582,6.98085 z m 65.6916,-18.61562 c -0.53337,-1.68049 -0.1326,-2.57366 1.68261,-3.75 1.31051,-0.84926 5.9843,-4.69411 10.38622,-8.54411 4.40191,-3.85 8.76782,-7.59968 9.70201,-8.33262 2.16815,-1.70106 5.79451,-0.59763 5.79451,1.76317 0,3.43715 -21.11945,21.06945 -25.23637,21.06945 -0.89587,0 -1.94391,-0.99265 -2.32898,-2.20589 z M 355.10457,137.44457 c -5.55157,-2.40022 -7.85113,-9.65634 -4.88065,-15.40062 2.16407,-4.18485 4.04042,-5.30027 9.04324,-5.3759 5.10045,-0.0771 8.45712,2.26164 10.57117,7.36543 1.70151,4.1078 -1.01811,11.24852 -4.84168,12.71249 -5.1182,1.95965 -6.71457,2.07239 -9.89208,0.6986 z m 8.33262,-11.11264 c 2.94731,-4.49816 -0.89372,-8.41291 -6.25466,-6.37468 -1.89003,0.71859 -2.39267,1.63972 -2.39267,4.38475 0,5.67844 5.41417,6.92435 8.64733,1.98993 z m -114.98696,6.26017 c -4.48122,-6.75125 -5.32213,-9.88156 -3.14084,-11.69187 2.40208,-1.99355 4.16217,-0.47145 8.69683,7.52084 3.66047,6.45156 3.80649,7.0055 2.1634,8.20695 -2.90263,2.12246 -4.01916,1.5387 -7.71939,-4.03592 z m 288.36309,-6.14739 c -0.99546,-1.19945 -0.41685,-2.85823 3.12755,-8.96612 4.37274,-7.53532 6.44326,-8.96087 8.83292,-6.0815 1,1.20492 0.62862,2.55502 -1.99425,7.25 -5.18518,9.28152 -7.33727,10.96532 -9.96622,7.79762 z M 473.2444,112.4619 c -1.35,-1.35 -2.45454,-3.17959 -2.45454,-4.06574 0,-4.11413 3.71778,-7.20137 6.69103,-7.28868 6.70959,-0.19703 9.95776,7.58026 4.67411,11.73638 -3.46017,2.72177 -5.91197,2.61667 -8.9106,-0.38196 z m 88.58064,-20.479716 c -2.61301,-4.882461 0.0948,-10.065741 5.25837,-10.065741 4.51427,0 6.48409,7.081276 2.87771,10.345012 -2.50767,2.269407 -6.85187,2.120292 -8.13608,-0.279271 z M 264.48771,83.893417 c -5.47655,-4.307865 -5.41819,-13.233741 4.55245,-13.659995 4.58631,-0.196069 7.25555,2.169061 7.51994,6.899797 0.21685,3.880145 -1.40744,6.31459 -5.16684,7.743909 -3.66034,1.391661 -3.9356,1.35245 -6.90555,-0.983711 z m 179.0094,-22.992611 c -6.12917,-4.821202 -5.13709,-15.128916 1.77163,-18.407317 4.26141,-2.022175 7.00892,-1.992678 10.57444,0.113525 6.7437,3.983602 6.7437,14.635256 0,18.618858 -3.8645,2.282814 -9.20961,2.14208 -12.34607,-0.325066 z m 8.34241,-7.510043 c 2.25185,-1.164478 2.95034,-2.221517 2.95034,-4.464817 0,-3.944266 -2.53645,-5.244238 -6.76403,-3.466674 -3.67129,1.543659 -4.30787,4.615255 -1.58099,7.62843 1.99376,2.203071 1.74724,2.189223 5.39468,0.303061 z m 94.05462,7.611292 c -1.92337,-1.21787 -1.4256,-2.15892 7.34901,-13.893427 7.80515,-10.438046 10.66952,-12.31432 11.36464,-7.4443 0.32832,2.300197 -5.76354,11.190891 -12.67756,18.502115 -3.85685,4.078421 -3.98113,4.136805 -6.03609,2.835612 z M 309.36128,47.345014 c -1.02852,-1.028521 -1.57142,-3.380893 -1.57142,-6.80887 0,-7.003767 -1.38864,-8.640817 -8.01971,-9.454388 -4.39226,-0.53889 -5.65339,-1.128331 -6.63677,-3.101985 -1.9778,-3.969455 -0.18919,-5.817118 6.40291,-6.614319 3.16446,-0.382686 6.31607,-1.145367 7.00357,-1.694846 0.75763,-0.605534 1.25,-3.435832 1.25,-7.185478 0,-8.9921954 3.65665,-12.53820026 7.90488,-7.6656754 0.2754,5.2132804 0.92567,10.7532104 1.84362,13.2888984 1.43997,3.977661 2.08699,2.526378 6.2515,2.926632 3.57468,0.343564 7.24315,0.933826 8.15145,1.319175 2.2752,0.965258 2.91376,4.104401 1.27458,6.265809 -0.33792,0.445573 -3.17912,1.943374 -8.55415,1.41601 -2.93544,-0.288007 -6.54386,0.06701 -7.57251,10.561399 -0.31371,3.200487 -1.0145,6.381567 -1.55732,7.069067 -1.35753,1.719356 -4.28219,1.56701 -6.17063,-0.321429 z M 521.78297,35.903573 c -1.60104,-2.991574 5.95853,-18.98713 8.9734,-18.98713 3.30766,0 3.45163,2.482727 0.56538,9.749173 -4.46247,11.234729 -7.10204,13.791053 -9.53878,9.237957 z m 56.9629,-0.23713 c -1.44933,-8.236638 -4.23579,-27.0659591 -4.32857,-29.2500001 -0.10901,-2.5659799 0.23361,-3 2.3682,-3 3.06185,0 4.07663,2.690264 6.51475,17.2712901 2.00193,11.972451 1.56799,15.22871 -2.02945,15.22871 -1.36452,0 -2.50074,-0.1125 -2.52493,-0.25 z m -27.03166,-46.227711 c -0.0476,-3.685576 2.92863,-11.735524 4.70431,-17.772289 1.6122,-4.998442 3.93,-6.19163 6.35394,-3.270965 2.29258,2.762398 -3.61486,23.8132507 -6.56305,24.5209649 -2.30372,0.5530101 -4.45591,-0.4331234 -4.4952,-3.4777109 z M 398.17797,-25.063626 c -6.45869,-2.609607 -8.53348,-12.316858 -3.82783,-17.909202 8.60438,-10.225724 24.5476,1.433732 17.73365,12.96882 -2.79465,4.730976 -8.98285,6.929484 -13.90582,4.940382 z m 7.42332,-10.058886 c 2.33724,-2.177464 2.54104,-2.878942 1.57092,-5.407038 -1.02864,-2.680575 -3.96163,-3.702822 -6.84918,-2.387167 -3.37354,1.537088 -4.32734,5.298132 -1.99671,7.873455 2.2702,2.508538 4.52366,2.48399 7.27497,-0.07925 z m 182.28639,4.889732 c -1.37717,-3.950565 -1.44005,-15.521239 -0.0889,-16.356308 0.55493,-0.34296 1.84799,-0.357265 2.87348,-0.03179 1.4834,0.470813 2.00257,1.992792 2.5399,7.445814 0.37146,3.769721 0.37961,8.032467 0.0181,9.472771 -0.93232,3.714656 -3.96782,3.413249 -5.34262,-0.53049 z m -60.98643,-40.600777 c -1.2955,-1.074374 -2.48356,-3.761421 -3.07731,-6.959963 -1.56126,-8.410581 -2.19055,-8.984507 -11.93398,-10.884138 -1.54507,-0.301236 -3.06102,-2.283388 -3.08479,-4.033454 -0.0278,-2.046204 2.56971,-3.324309 7.31694,-3.600312 6.10464,-0.97675 6.27558,-3.387266 7.46697,-9.125486 1.7599,-9.06843 0.82547,-10.48817 8.78091,-10.12387 2.74361,0.12564 3.03427,1.70367 4.01735,7.19842 1.31764,7.36473 3.20219,10.538971 7.2532,12.216953 1.65308,0.68473 3.26133,1.911362 3.57387,2.725849 0.77369,2.0162 -0.99636,5.065321 -3.37957,5.821724 -3.07032,0.97448 -7.04498,6.356976 -7.04498,9.540316 0,1.949371 -1.04452,3.851559 -3.25,5.918648 -3.8074,3.568478 -3.89006,3.58473 -6.63861,1.305313 z m 47.89022,-4.74576 c -1.32412,-3.482692 -1.26421,-4.762862 0.32458,-6.935662 0.93989,-1.28537 1.97437,-1.607957 3.55137,-1.107436 1.94543,0.617454 2.18729,1.292898 1.92381,5.372551 -0.25619,3.966743 -0.63845,4.714182 -2.54976,4.985647 -1.66171,0.236013 -2.50974,-0.368075 -3.25,-2.3151 z M 342.44484,-111.9123 c -4.47514,-4.94498 -0.17269,-14.17126 6.60843,-14.17126 4.53697,0 6.66595,1.7899 7.38273,6.20689 0.51977,3.20295 0.191,4.10981 -2.44591,6.74672 -3.59667,3.59667 -8.88729,4.15466 -11.54525,1.21765 z m 222.26809,-31.09433 c -3.38832,-3.38833 -3.85193,-7.72769 -1.17307,-10.97993 2.16543,-2.62892 7.31104,-4.20197 9.58407,-2.92991 2.01131,1.12558 2.215,3.83291 0.28837,3.83291 -0.75765,0 -1.94518,0.68396 -2.63895,1.5199 -1.79308,2.16052 0.002,8.09037 2.3262,7.68627 2.62147,-0.45571 1.97851,1.15274 -1.01686,2.54383 -3.70725,1.7217 -4.05361,1.64307 -7.36976,-1.67307 z m -123.97423,-9.12808 c -2.28529,-1.64602 -2.47316,-6.38625 -0.99214,-8.24209 3.27922,-4.10912 4.81946,-6.49443 10.94503,-3.06719 4.00393,2.24019 2.87383,6.17134 2.87865,6.3409 0.16878,5.93646 -8.50497,9.29495 -12.83154,4.96838 z m 75.24925,-37.62166 c -6.35617,-3.1325 -7.77379,-10.78301 -3.09923,-16.72574 1.62437,-2.06505 2.91331,-2.60145 6.25121,-2.60145 4.83485,0 8.02305,1.88707 10.15564,6.01105 2.31058,4.46818 1.85412,7.78296 -1.539,11.17609 -1.00309,1.00308 -5.67298,5.14416 -11.76862,2.14005 z m 6.87922,-9.40451 c 1.32593,-1.32592 1.82542,-2.68234 1.3809,-3.75 -2.51753,-4.34878 -0.5864,-3.52415 -6.96396,-2.80885 -2.83766,1.08892 -1.05407,8.63617 2.04093,8.63617 0.80565,0 2.39961,-0.93479 3.54213,-2.07732 z m 32.2088,3.86063 c -3.14986,-5.51129 -3.89901,-7.63811 -3.17014,-9 1.67574,-3.13115 3.82445,-1.94297 7.90583,4.37173 4.63954,7.17827 5.30282,11.84496 1.68353,11.84496 -1.79989,0 -3.184,-1.55606 -6.41922,-7.21669 z"
     id="path6"
     sodipodi:nodetypes="sssssssssssssssssssssssssssssssssssssssscsssssassacsssssssssssssssssssssssssssssssssssssssssssssssssssssssssssssssssssssssssssssssssscsssscsssssssssssssssssssssssssssssssssssssssssssssssssssssssssssssssssssssssssss" /><path
     style="fill:#eff0d7"
     d="m 664.86178,161.66644 c -0.48686,-1.2375 -1.4057,-4.82059 -2.04187,-7.96243 -0.63617,-3.14185 -2.16394,-7.61721 -3.39504,-9.94526 -2.07067,-3.9157 -2.82788,-4.42421 -10.10721,-6.78756 -4.32786,-1.40511 -8.33569,-3.31591 -8.90628,-4.24621 -1.60034,-2.60921 1.5439,-5.30351 7.83118,-6.71054 7.99255,-1.78865 10.08506,-3.91022 13.01991,-13.20066 1.39006,-4.40032 2.52739,-9.04725 2.52739,-10.32651 0,-2.948382 2.32532,-4.919735 4.85577,-4.116603 1.48932,0.472693 2.21493,2.130753 3.06255,6.998173 1.37281,7.88323 3.61002,14.36895 5.78582,16.77318 0.90832,1.00368 4.69644,2.74975 8.41804,3.88015 3.7216,1.13041 7.31705,2.71859 7.98988,3.5293 1.87758,2.26235 -1.45863,4.93864 -9.56532,7.67324 -8.20086,2.76637 -9.64772,4.81702 -11.97283,16.96926 -0.818,4.27529 -1.75832,8.21183 -2.08961,8.74787 -1.11742,1.80802 -4.51421,1.00758 -5.41238,-1.2754 z M 656.44906,41.666443 c -0.30668,-1.2375 -0.64126,-12.336586 -0.7435,-24.664635 -0.17144,-20.6732384 -0.044,-22.5183804 1.64034,-23.7500004 2.63815,-1.9290695 6.21039,-1.6403053 7.40877,0.5988938 1.53801,2.8737998 1.38813,47.3127996 -0.16481,48.8657416 -0.66,0.66 -2.63622,1.2 -4.3916,1.2 -2.47791,0 -3.31628,-0.503127 -3.7492,-2.25 z m -454.62914,-121 c -0.50989,-1.2375 -1.41729,-4.725 -2.01647,-7.75 -0.59917,-3.025 -2.00225,-7.391358 -3.11796,-9.703018 -1.7179,-3.559355 -2.39912,-4.735515 -7.49961,-6.250005 -7.6009,-2.25694 -13.30468,-4.5924 -11.83531,-7.7588 0.88334,-1.90355 4.36675,-2.98257 8.25261,-4.16286 9.27802,-2.81811 12.16703,-6.86585 14.59792,-20.45292 1.05942,-5.92141 1.22448,-6.1724 4.05911,-6.1724 3.23238,0 3.39856,0.34928 5.56102,11.68832 1.85911,9.7484 6.38916,14.04367 17.15198,16.26301 3.8381,0.79144 4.7347,4.34194 1.68394,6.66831 -1.30201,0.99284 -3.71729,2.09456 -5.36729,2.44825 -5.24269,1.1238 -9.54477,3.618 -10.95961,6.353992 -0.75432,1.458704 -2.10797,6.2177 -3.00811,10.575548 -0.90014,4.357847 -2.11824,8.503682 -2.70689,9.212966 -1.63359,1.968351 -3.76445,1.54159 -4.79533,-0.960393 z m 45.62755,-72.199863 c -0.32766,-0.85386 -0.66024,-11.4574 -0.73907,-23.56343 -0.15513,-23.82398 0.0813,-24.98671 5.08146,-24.98671 4.88003,0 5.05789,0.97439 4.76873,26.12504 l -0.26873,23.37496 -4.12333,0.30131 c -3.00395,0.21951 -4.28505,-0.12015 -4.71906,-1.25117 z m 47.84346,-64.30014 c -0.39209,-0.9625 -1.98974,-7.47747 -3.55033,-14.47772 -1.5606,-7.00024 -3.71745,-14.71712 -4.79301,-17.14861 -2.73529,-6.18356 -8.1372,-9.05306 -24.81024,-13.17923 -7.53023,-1.86355 -14.16635,-3.86329 -14.74693,-4.44388 -2.46005,-2.46004 1.14242,-4.51115 13.50032,-7.68658 6.81951,-1.75231 14.32058,-4.11331 16.66903,-5.24668 5.04719,-2.43577 9.56893,-8.91939 11.07435,-15.87923 4.33013,-20.01914 5.48215,-24.37162 6.79931,-25.68878 3.5364,-3.5364 5.22677,-1.06858 7.94857,11.60439 5.45715,25.40907 7.60379,28.4819 23.08756,33.04895 5.40116,1.59312 12.04063,3.33956 14.75438,3.881 2.71374,0.54143 5.75309,1.86354 6.75412,2.93801 1.76333,1.89271 1.75648,1.9876 -0.2198,3.04527 -1.12192,0.60043 -8.21127,2.79095 -15.75413,4.86781 -16.15641,4.44853 -19.32509,5.94048 -22.07842,10.39547 -2.00447,3.24329 -6.27839,18.68255 -7.67346,27.71981 -0.8993,5.82575 -2.09259,8 -4.39059,8 -1.0218,0 -2.17863,-0.7875 -2.57073,-1.75 z"
     id="path12"
     sodipodi:nodetypes="sssssssssssssssssssssssssssssssssssssssssssscsssssssssssssssssssss" /></g><metadata
   id="metadata71"><rdf:RDF><cc:Work
       rdf:about=""><dc:title>Batata Terminal</dc:title><dc:creator><cc:Agent><dc:title>Hugo Parente Lima</dc:title></cc:Agent></dc:creator><cc:license
         rdf:resource="http://artlibre.org/licence/lal" /></cc:Work><cc:License
       rdf:about="http://artlibre.org/licence/lal"><cc:permits
         rdf:resource="http://creativecommons.org/ns#Reproduction" /><cc:permits
         rdf:resource="http://creativecommons.org/ns#Distribution" /><cc:permits
         rdf:resource="http://creativecommons.org/ns#DerivativeWorks" /><cc:requires
         rdf:resource="http://creativecommons.org/ns#ShareAlike" /><cc:requires
         rdf:resource="http://creativecommons.org/ns#Notice" /><cc:requires
         rdf:resource="http://creativecommons.org/ns#Attribution" /></cc:License></rdf:RDF></metadata></svg>
